<svg xmlns="http://www.w3.org/2000/svg" viewBox="0 0 16 16" width="16" height="16"><path fill="#265b3f" stroke="#fff" stroke-width=".33" d="M.87 15.83c-.2 0-.36-.08-.5-.2-.12-.14-.2-.3-.2-.5V.87c0-.38.32-.7.7-.7h14.26c.4 0 .7.32.7.7v14.26c0 .4-.32.7-.7.7H.87z"/><path fill="#fff" fill-rule="evenodd" d="M1.95 9.33v-.75l1.27-.5h.57v-.22h1l-.13-.34-.96-.14v-.55L4 6.7v-.3c0-.08.07-.1.14-.1v-.16h-.1v-.1h.1v-.38h-.12c0-.2.3-.2.3 0H4.2v.37h.12v.1h-.1v.17c.25 0 .3-.03.3.16l.46-.2h.52V6.2c0-.1.06-.16.15-.16h.07V5.9h-.78v-.1h.12v-.27h1.08v.06h.66v-.1h.05v.1h.07v.2h-.47v.1H6v.14h.76c.08 0 .16.07.16.15 0 .02 0 .04-.02.06h.62l1.03.2.1.07.5-.13.33.17 2.4-.63.3-.2.25-.06.02.06.15-.05-.02-.07.07-.02v.07l.17-.04-.02-.06h.07v.04l.17-.03-.02-.06h.07v.05l.15-.04-.02-.04.08-.02.03.1.1-.03-.03-.16.22-.05.05.15.07-.02-.03-.1.2-.05.16.6-.18.05-.02-.1-.07.02.03.17-.22.05-.03-.17-.1.03.02.1-.1.02V6l-.15.04v.05h-.06l-.17.03v.05l-.06.02v-.05l-.16.04v.03l-.04.02-.02-.05-.15.05v.05l-.26.07H12l-2.83.74-.34.48-.76.3h2.43v.22h1.04l.86.33.9.92-.63.35h-.2l-.5.65-.88.36H3.8l-.88-.34-.5-.65h-.3l-.2-.36z"/></svg>