<svg xmlns="http://www.w3.org/2000/svg" viewBox="0 0 16 16" width="16" height="16"><path fill="#103c68" stroke="#fff" stroke-width=".33" d="M.87 15.83c-.2 0-.36-.08-.5-.2-.12-.14-.2-.3-.2-.5V.87c0-.38.32-.7.7-.7h14.26c.4 0 .7.32.7.7v14.26c0 .4-.32.7-.7.7H.87z"/><path fill="#fff" d="M12.9 9.06h-.92v.46l-3.42 1.74-.3-4.8 2.03-.38H8.24l-.1-1.75c.3-.07.52-.33.52-.65C8.67 3.3 8.37 3 8 3c-.37 0-.67.3-.67.68 0 .32.23.58.53.65l-.1 1.75H5.68l2.03.4-.3 4.8-3.4-1.76v-.46H3.1l.92 1.2V9.8L8 13l3.98-3.2v.46l.9-1.2zM7.75 3.68c0-.13.1-.24.24-.24.13 0 .24.1.24.24 0 .13-.1.24-.24.24-.13 0-.24-.1-.24-.24z"/></svg>